<svg width="62" height="62" viewBox="0 0 62 62" fill="none" xmlns="http://www.w3.org/2000/svg">
<g clip-path="url(#clip0)">
<path d="M32.7014 47.0356L61.2989 18.3588C62.2353 17.4193 62.2337 15.8981 61.294 14.9601C60.3545 14.0228 58.8325 14.0253 57.8953 14.9649L30.9999 41.9348L4.10459 14.964C3.16733 14.0244 1.64628 14.022 0.706593 14.9591C0.23554 15.4293 1.12066e-05 16.0453 1.12066e-05 16.6613C1.12066e-05 17.2758 0.233965 17.8893 0.701748 18.3587L29.2985 47.0356C29.7488 47.4882 30.3615 47.7421 30.9999 47.7421C31.6383 47.7421 32.2503 47.4874 32.7014 47.0356Z" fill="white"/>
</g>
<defs>
<clipPath id="clip0">
<rect width="62" height="62" fill="white" transform="translate(62) rotate(90)"/>
</clipPath>
</defs>
</svg>
