<svg width="39" height="39" viewBox="0 0 39 39" fill="none" xmlns="http://www.w3.org/2000/svg">
<path d="M29.7832 5.71289C29.7832 2.45586 25.3624 0 19.5 0C13.6376 0 9.2168 2.45586 9.2168 5.71289C9.2168 6.34405 9.72837 6.85547 10.3594 6.85547H28.6406C29.2716 6.85547 29.7832 6.34405 29.7832 5.71289Z" fill="black"/>
<path d="M17.0084 32.3445L17.9322 31.1129L16.5952 30.009L17.0084 32.3445Z" fill="black"/>
<path d="M20.8276 39L21.4469 35.4244L19.5004 32.8292L17.5537 35.4246L18.173 39H20.8276Z" fill="black"/>
<path d="M22.405 30.0093L21.0684 31.1129L21.9918 32.3442L22.405 30.0093Z" fill="black"/>
<path d="M13.4401 25.291L12.8286 25.3914C8.08763 26.1669 4.64648 30.1927 4.64648 34.965V39H15.8529L13.4401 25.291Z" fill="black"/>
<path d="M34.3535 34.965C34.3535 30.1927 30.9124 26.1669 26.1714 25.3914L25.5595 25.291L23.147 39H34.3535V34.965Z" fill="black"/>
<path d="M23.2856 25.033C22.7978 25.1322 22.3029 25.2129 21.7853 25.2129H17.2149C16.6972 25.2129 16.2021 25.1322 15.7144 25.033L15.9806 26.5376L19.5001 29.444L23.0192 26.5381L23.2856 25.033Z" fill="black"/>
<path d="M17.2148 22.9277H21.7852C24.9351 22.9277 27.498 20.3648 27.498 17.2148V14.2179C26.8232 14.6115 26.049 14.8535 25.2129 14.8535H13.7871C12.951 14.8535 12.1768 14.6115 11.502 14.2179V17.2148C11.502 20.3648 14.0649 22.9277 17.2148 22.9277Z" fill="black"/>
<path d="M13.7871 12.5684H25.2129C26.475 12.5684 27.498 11.5453 27.498 10.2832V9.14062H11.502V10.2832C11.502 11.5453 12.525 12.5684 13.7871 12.5684Z" fill="black"/>
</svg>
