<svg width="39" height="39" viewBox="0 0 39 39" fill="none" xmlns="http://www.w3.org/2000/svg">
<g clip-path="url(#clip0)">
<path d="M35.512 5.11304L32.262 1.86301C31.9446 1.5456 31.4304 1.5456 31.1131 1.86301C30.7957 2.18042 30.7957 2.69458 31.1131 3.01191L33.7886 5.68745L31.1131 8.36299C30.9607 8.51533 30.875 8.7216 30.875 8.93747V11.375C30.875 13.1675 32.3327 14.625 34.1251 14.625V28.4375C34.1251 28.8857 33.7609 29.25 33.3125 29.25C32.8643 29.25 32.5 28.8858 32.5 28.4375V26.8125C32.5 25.4684 31.4066 24.375 30.0625 24.375H29.2501V3.25003C29.2501 1.45755 27.7925 0 26 0H9.75005C7.95765 0 6.50003 1.45755 6.50003 3.25003V32.5C4.70763 32.5 3.25 33.9576 3.25 35.7501V38.1876C3.25 38.6367 3.61342 39.0001 4.06253 39.0001H31.6876C32.1367 39.0001 32.5001 38.6367 32.5001 38.1876V35.7501C32.5001 33.9577 31.0425 32.5 29.2501 32.5V26.0001H30.0626C30.5108 26.0001 30.8751 26.3642 30.8751 26.8126V28.4376C30.8751 29.7817 31.9685 30.8751 33.3126 30.8751C34.6567 30.8751 35.7501 29.7817 35.7501 28.4376V5.68753C35.75 5.47165 35.6643 5.26538 35.512 5.11304ZM26 13.8276C26 14.2767 25.6366 14.6401 25.1875 14.6401H10.5625C10.1134 14.6401 9.74998 14.2767 9.74998 13.8276V4.06247C9.74998 3.61337 10.1134 3.24995 10.5625 3.24995H25.1875C25.6366 3.24995 26 3.61337 26 4.06247V13.8276Z" fill="black"/>
</g>
<defs>
<clipPath id="clip0">
<rect width="39" height="39" fill="white"/>
</clipPath>
</defs>
</svg>
