<svg width="39" height="39" viewBox="0 0 39 39" fill="none" xmlns="http://www.w3.org/2000/svg">
<g clip-path="url(#clip0)">
<path d="M25.6451 26.1077C25.7355 25.1571 25.7081 24.2101 25.5707 23.2855L27.7081 22.3328C27.5062 21.2974 27.1887 20.276 26.7484 19.2876C26.3082 18.2999 25.7614 17.3808 25.1277 16.5375L22.9889 17.4895C22.3938 16.7696 21.7082 16.1162 20.9413 15.547L21.7797 13.3627C20.9041 12.7738 19.9578 12.2761 18.9476 11.8884C17.9417 11.5022 16.9084 11.2351 15.8576 11.0872L15.0184 13.2736C14.0679 13.1832 13.1208 13.2105 12.1962 13.3479L11.2491 11.2211C9.13346 11.6368 7.15661 12.5341 5.45947 13.8162L6.40022 15.9291C5.67888 16.5242 5.02554 17.2105 4.45632 17.9767L2.27758 17.1411C1.68313 18.0146 1.18471 18.9616 0.796348 19.9711C0.411493 20.9805 0.147913 22.0166 0 23.0604L2.18435 23.8988C2.09392 24.8494 2.12126 25.7965 2.25865 26.7211L0.121275 27.6731C0.323166 28.7092 0.640723 29.7298 1.08096 30.7183C1.52189 31.7067 2.06798 32.625 2.70239 33.4683L4.83977 32.5164C5.43493 33.237 6.12052 33.8903 6.88813 34.4596L6.04972 36.6453C6.92528 37.2349 7.87164 37.7319 8.8818 38.1195C9.88775 38.5058 10.921 38.7729 11.9719 38.9208L12.811 36.7343C13.7615 36.8241 14.7086 36.7967 15.6332 36.6593L16.5803 38.7855C18.6959 38.3698 20.6742 37.4725 22.3706 36.1903L21.4292 34.0775C22.1498 33.4823 22.8039 32.7968 23.3731 32.0299L25.5504 32.8655C26.1449 31.992 26.6433 31.0449 27.0317 30.0362C27.4193 29.0267 27.6822 27.9899 27.8301 26.9454L25.6451 26.1077ZM19.8386 27.2763C18.5831 30.5486 14.9133 32.182 11.6403 30.9265C8.37146 29.6717 6.73601 26.0026 7.99082 22.731C9.24632 19.4593 12.9161 17.826 16.187 19.0801C19.4586 20.3349 21.0934 24.0054 19.8386 27.2763Z" fill="black"/>
<path d="M37.4794 8.68902C37.4794 8.26561 37.436 7.85131 37.3617 7.44893L38.9999 6.50256C38.6032 4.99399 37.8152 3.64314 36.7378 2.57621L35.0953 3.52467C34.4686 2.9877 33.7424 2.56709 32.9481 2.28669V0.39186C32.2247 0.193474 31.4669 0.0799103 30.6824 0.0799103C29.898 0.0799103 29.1409 0.194876 28.4168 0.39186V2.28739C27.6225 2.5678 26.897 2.9891 26.2696 3.52537L24.6264 2.57691C23.5504 3.64385 22.7617 4.99469 22.3643 6.50327L24.0032 7.44963C23.9289 7.85271 23.8847 8.26561 23.8847 8.68972C23.8847 9.11383 23.9289 9.52742 24.0032 9.9298L22.3643 10.8762C22.7617 12.3847 23.5504 13.7363 24.6264 14.8025L26.2689 13.8541C26.8963 14.391 27.6218 14.8116 28.4161 15.092V16.9876C29.1402 17.1853 29.8973 17.2995 30.6817 17.2995C31.4662 17.2995 32.2247 17.1846 32.9474 16.9876V15.092C33.7417 14.8116 34.4679 14.3903 35.0946 13.8541L36.7371 14.8025C37.8145 13.7356 38.6025 12.3847 38.9992 10.8762L37.361 9.9298C37.436 9.52602 37.4794 9.11313 37.4794 8.68902ZM30.6831 11.8618C28.9306 11.8618 27.5097 10.4415 27.5097 8.68972C27.5097 6.93789 28.9306 5.51694 30.6831 5.51694C32.4336 5.51694 33.8545 6.93719 33.8545 8.68902C33.8545 10.4408 32.4336 11.8618 30.6831 11.8618Z" fill="black"/>
</g>
<defs>
<clipPath id="clip0">
<rect width="39" height="39" fill="white"/>
</clipPath>
</defs>
</svg>
