<svg width="232" height="53" viewBox="0 0 232 53" fill="none" xmlns="http://www.w3.org/2000/svg">
<path d="M41.7234 0H11.2766C5.0487 0 0 5.0487 0 11.2766V41.7234C0 47.9513 5.0487 53 11.2766 53H41.7234C47.9513 53 53 47.9513 53 41.7234V11.2766C53 5.0487 47.9513 0 41.7234 0Z" fill="#422CFF"/>
<path d="M43.7169 27.9296C44.8178 26.8287 44.8178 25.0436 43.7169 23.9427L25.7759 6.00176C24.675 4.90082 22.8899 4.90082 21.789 6.00176C20.688 7.10271 20.688 8.88769 21.789 9.98864L37.7365 25.9362L21.789 41.8836C20.688 42.9846 20.688 44.7696 21.789 45.8706C22.8899 46.9715 24.675 46.9715 25.7759 45.8706L43.7169 27.9296ZM38.3404 28.7553H41.7234V23.117H38.3404V28.7553Z" fill="white"/>
<path d="M32.4403 27.9296C33.5413 26.8287 33.5413 25.0436 32.4403 23.9427L14.4994 6.00176C13.3985 4.90082 11.6134 4.90082 10.5125 6.00176C9.41153 7.10271 9.41153 8.88769 10.5125 9.98864L26.46 25.9362L10.5125 41.8836C9.41153 42.9846 9.41153 44.7696 10.5125 45.8706C11.6134 46.9715 13.3985 46.9715 14.4994 45.8706L32.4403 27.9296ZM27.0639 28.7553H30.4469V23.117H27.0639V28.7553Z" fill="black"/>
<path d="M67.992 18.2H71.88V35H67.992V18.2ZM91.275 18.2V35H88.083L79.707 24.8V35H75.867V18.2H79.083L87.435 28.4V18.2H91.275ZM95.2498 18.2H102.882C104.706 18.2 106.314 18.552 107.706 19.256C109.114 19.944 110.202 20.92 110.97 22.184C111.754 23.448 112.146 24.92 112.146 26.6C112.146 28.28 111.754 29.752 110.97 31.016C110.202 32.28 109.114 33.264 107.706 33.968C106.314 34.656 104.706 35 102.882 35H95.2498V18.2ZM102.69 31.808C104.37 31.808 105.706 31.344 106.698 30.416C107.706 29.472 108.21 28.2 108.21 26.6C108.21 25 107.706 23.736 106.698 22.808C105.706 21.864 104.37 21.392 102.69 21.392H99.1378V31.808H102.69ZM128.086 31.88V35H115.078V18.2H127.774V21.32H118.942V24.968H126.742V27.992H118.942V31.88H128.086ZM141.599 35L137.543 29.168L133.559 35H129.095L135.311 26.456L129.407 18.2H133.823L137.687 23.648L141.479 18.2H145.679L139.823 26.312L146.087 35H141.599ZM154.945 18.2H162.577C164.401 18.2 166.009 18.552 167.401 19.256C168.809 19.944 169.897 20.92 170.665 22.184C171.449 23.448 171.841 24.92 171.841 26.6C171.841 28.28 171.449 29.752 170.665 31.016C169.897 32.28 168.809 33.264 167.401 33.968C166.009 34.656 164.401 35 162.577 35H154.945V18.2ZM162.385 31.808C164.065 31.808 165.401 31.344 166.393 30.416C167.401 29.472 167.905 28.2 167.905 26.6C167.905 25 167.401 23.736 166.393 22.808C165.401 21.864 164.065 21.392 162.385 21.392H158.833V31.808H162.385ZM185.477 35L182.237 30.32H182.045H178.661V35H174.773V18.2H182.045C183.533 18.2 184.821 18.448 185.909 18.944C187.013 19.44 187.861 20.144 188.453 21.056C189.045 21.968 189.341 23.048 189.341 24.296C189.341 25.544 189.037 26.624 188.429 27.536C187.837 28.432 186.989 29.12 185.885 29.6L189.653 35H185.477ZM185.405 24.296C185.405 23.352 185.101 22.632 184.493 22.136C183.885 21.624 182.997 21.368 181.829 21.368H178.661V27.224H181.829C182.997 27.224 183.885 26.968 184.493 26.456C185.101 25.944 185.405 25.224 185.405 24.296ZM192.422 18.2H196.31V35H192.422V18.2ZM216.355 18.2L209.083 35H205.243L197.995 18.2H202.195L207.307 30.2L212.491 18.2H216.355ZM230.766 31.88V35H217.758V18.2H230.454V21.32H221.622V24.968H229.422V27.992H221.622V31.88H230.766Z" fill="white"/>
</svg>
