<svg width="173" height="53" viewBox="0 0 173 53" fill="none" xmlns="http://www.w3.org/2000/svg">
<path d="M63.328 22.8H65.92V34H63.328V22.8ZM78.85 22.8V34H76.722L71.138 27.2V34H68.578V22.8H70.722L76.29 29.6V22.8H78.85ZM81.4999 22.8H86.5879C87.8039 22.8 88.8759 23.0347 89.8039 23.504C90.7425 23.9627 91.4679 24.6133 91.9799 25.456C92.5025 26.2987 92.7639 27.28 92.7639 28.4C92.7639 29.52 92.5025 30.5013 91.9799 31.344C91.4679 32.1867 90.7425 32.8427 89.8039 33.312C88.8759 33.7707 87.8039 34 86.5879 34H81.4999V22.8ZM86.4599 31.872C87.5799 31.872 88.4705 31.5627 89.1319 30.944C89.8039 30.3147 90.1399 29.4667 90.1399 28.4C90.1399 27.3333 89.8039 26.4907 89.1319 25.872C88.4705 25.2427 87.5799 24.928 86.4599 24.928H84.0919V31.872H86.4599ZM103.391 31.92V34H94.7186V22.8H103.183V24.88H97.2946V27.312H102.495V29.328H97.2946V31.92H103.391ZM112.4 34L109.696 30.112L107.04 34H104.064L108.208 28.304L104.272 22.8H107.216L109.792 26.432L112.32 22.8H115.12L111.216 28.208L115.392 34H112.4ZM121.297 22.8H126.385C127.601 22.8 128.673 23.0347 129.601 23.504C130.539 23.9627 131.265 24.6133 131.777 25.456C132.299 26.2987 132.561 27.28 132.561 28.4C132.561 29.52 132.299 30.5013 131.777 31.344C131.265 32.1867 130.539 32.8427 129.601 33.312C128.673 33.7707 127.601 34 126.385 34H121.297V22.8ZM126.257 31.872C127.377 31.872 128.267 31.5627 128.929 30.944C129.601 30.3147 129.937 29.4667 129.937 28.4C129.937 27.3333 129.601 26.4907 128.929 25.872C128.267 25.2427 127.377 24.928 126.257 24.928H123.889V31.872H126.257ZM141.652 34L139.492 30.88H139.364H137.108V34H134.516V22.8H139.364C140.356 22.8 141.214 22.9653 141.94 23.296C142.676 23.6267 143.241 24.096 143.636 24.704C144.03 25.312 144.228 26.032 144.228 26.864C144.228 27.696 144.025 28.416 143.62 29.024C143.225 29.6213 142.66 30.08 141.924 30.4L144.436 34H141.652ZM141.604 26.864C141.604 26.2347 141.401 25.7547 140.996 25.424C140.59 25.0827 139.998 24.912 139.22 24.912H137.108V28.816H139.22C139.998 28.816 140.59 28.6453 140.996 28.304C141.401 27.9627 141.604 27.4827 141.604 26.864ZM146.281 22.8H148.873V34H146.281V22.8ZM162.237 22.8L157.389 34H154.829L149.997 22.8H152.797L156.205 30.8L159.661 22.8H162.237ZM171.844 31.92V34H163.172V22.8H171.636V24.88H165.748V27.312H170.948V29.328H165.748V31.92H171.844Z" fill="black"/>
<path d="M41.7234 0H11.2766C5.0487 0 0 5.0487 0 11.2766V41.7234C0 47.9513 5.0487 53 11.2766 53H41.7234C47.9513 53 53 47.9513 53 41.7234V11.2766C53 5.0487 47.9513 0 41.7234 0Z" fill="#422CFF"/>
<path d="M43.7169 27.9296C44.8178 26.8287 44.8178 25.0436 43.7169 23.9427L25.7759 6.00176C24.675 4.90082 22.8899 4.90082 21.789 6.00176C20.6881 7.10271 20.6881 8.88769 21.789 9.98864L37.7366 25.9362L21.789 41.8836C20.6881 42.9846 20.6881 44.7696 21.789 45.8706C22.8899 46.9715 24.675 46.9715 25.7759 45.8706L43.7169 27.9296ZM38.3404 28.7553H41.7234V23.117H38.3404V28.7553Z" fill="white"/>
<path d="M32.4403 27.9296C33.5412 26.8287 33.5412 25.0436 32.4403 23.9427L14.4993 6.00176C13.3984 4.90082 11.6133 4.90082 10.5124 6.00176C9.41148 7.10271 9.41148 8.88769 10.5124 9.98864L26.46 25.9362L10.5124 41.8836C9.41148 42.9846 9.41148 44.7696 10.5124 45.8706C11.6133 46.9715 13.3984 46.9715 14.4993 45.8706L32.4403 27.9296ZM27.0638 28.7553H30.4468V23.117H27.0638V28.7553Z" fill="black"/>
</svg>
