<svg width="45" height="45" viewBox="0 0 45 45" fill="none" xmlns="http://www.w3.org/2000/svg">
<path d="M41.0281 38.8968L30.7407 28.6094C32.7334 26.1479 33.9332 23.0202 33.9332 19.6137C33.9332 11.7184 27.509 5.29419 19.6137 5.29419C11.7183 5.29419 5.29419 11.7183 5.29419 19.6137C5.29419 27.509 11.7184 33.9332 19.6137 33.9332C23.0202 33.9332 26.1479 32.7334 28.6094 30.7407L38.8968 41.0281C39.1907 41.3221 39.5766 41.4698 39.9625 41.4698C40.3484 41.4698 40.7343 41.3221 41.0282 41.0281C41.6175 40.4388 41.6175 39.4861 41.0281 38.8968ZM19.6137 30.9185C13.3794 30.9185 8.30885 25.8479 8.30885 19.6137C8.30885 13.3794 13.3794 8.30878 19.6137 8.30878C25.848 8.30878 30.9186 13.3794 30.9186 19.6137C30.9186 25.8479 25.8479 30.9185 19.6137 30.9185Z" fill="white"/>
</svg>
